:version 1.10
:name ASF
:units
  mass 1
  length 1
  angle deg
:documentation
  ASF file generated by Kaydara
:root
  axis xyz
  order  tx ty tz rx ry rz
  position 0 0 0
  orientation 0 0 0
:bonedata
  begin
    id 1
    name RightUpLegDummy
    direction -1 2.30186e-007 8.31532e-007
    length 4.46685
    axis 0 0 0 xyz
  end
  begin
    id 2
    name RightUpLeg
    direction -2.30187e-007 -1 1.24343e-010
    length 16.4045
    axis -3.49089 -0.000906625 0.000286804 xyz
    dof rx ry rz
  end
  begin
    id 3
    name RightLeg
    direction -2.30181e-007 -1 -4.17157e-009
    length 17.5097
    axis 3.68512 0.0193738 -0.131023 xyz
    dof rx ry rz
  end
  begin
    id 4
    name RightFoot
    direction 8.31421e-007 -4.51202e-011 1
    length 6.49508
    axis 4.81691e-005 -0.120479 -0.188788 xyz
    dof rx ry rz
  end
  begin
    id 5
    name RightToes
    direction 0.00124746 -0.014064 0.9999
    length 3.85082
    axis 0.000481921 0.542163 -0.142578 xyz
    dof rx ry rz
  end
  begin
    id 6
    name SpineDummy
    direction 0.0717043 0.9409 -0.331007
    length 10.0032
    axis 0 0 0 xyz
  end
  begin
    id 7
    name Spine
    direction 2.30186e-007 1 4.58806e-011
    length 9.84055
    axis -0.001389 0.000121418 2.40972e-006 xyz
    dof rx ry rz
  end
  begin
    id 8
    name Spine1
    direction 0 0 0
    length 0
    axis -0.001389 0.000121451 1.30017e-006 xyz
    dof rx ry rz
  end
  begin
    id 9
    name HEadDummy
    direction -0.00347485 0.950688 -0.310128
    length 8.00997
    axis -0.001389 0.000121451 1.30017e-006 xyz
  end
  begin
    id 10
    name HEad
    direction -0.0222688 0.980941 0.193023
    length 5.12695
    axis -0.001389 0.000121451 1.30017e-006 xyz
    dof rx ry rz
  end
  begin
    id 11
    name LeftShoulder1Dummy
    direction 0.988871 0.146793 -0.0242004
    length 3.5792
    axis -0.001389 0.000121451 1.30017e-006 xyz
  end
  begin
    id 12
    name LeftShoulder1
    direction 0.993832 0.108932 0.020779
    length 4.16823
    axis -0.001389 0.000121451 1.30017e-006 xyz
    dof rx ry rz
  end
  begin
    id 13
    name LeftArm
    direction 1 3.44807e-006 -8.31404e-007
    length 9.91437
    axis -23.1894 0.134784 0.967509 xyz
    dof rx ry rz
  end
  begin
    id 14
    name LeftForeArm
    direction 1 3.44842e-006 -8.31581e-007
    length 9.08575
    axis -9.91835 -0.06569 -0.177793 xyz
    dof rx ry rz
  end
  begin
    id 15
    name LeftHand
    direction 0.992938 -0.0411636 0.11126
    length 5.32135
    axis -0.00960232 -0.00340091 0.185173 xyz
    dof rx ry rz
  end
  begin
    id 16
    name RightShoulderDummy
    direction -0.988871 0.146793 -0.0241962
    length 3.5792
    axis -0.001389 0.000121451 1.30017e-006 xyz
  end
  begin
    id 17
    name RightShoulder
    direction -0.993832 0.108933 0.0207785
    length 4.16823
    axis 0.215806 0.000203643 -0.0068026 xyz
    dof rx ry rz
  end
  begin
    id 18
    name RightArm
    direction -1 3.90912e-006 8.31284e-007
    length 9.91437
    axis -23.2009 -0.134239 -0.964101 xyz
    dof rx ry rz
  end
  begin
    id 19
    name RightForeArm
    direction -1 3.90882e-006 8.31502e-007
    length 9.08575
    axis -9.92322 0.0658061 0.178867 xyz
    dof rx ry rz
  end
  begin
    id 20
    name RightHand
    direction -0.992843 -0.0414603 0.112003
    length 5.28593
    axis -0.00960638 0.00330671 -0.185228 xyz
    dof rx ry rz
  end
  begin
    id 21
    name LeftUpLegDummy
    direction 1 -2.30186e-007 -8.31532e-007
    length 4.46685
    axis 0 0 0 xyz
  end
  begin
    id 22
    name LeftUpLeg
    direction -2.30187e-007 -1 6.00931e-010
    length 16.4045
    axis -3.48766 0.00143442 -0.000524262 xyz
    dof rx ry rz
  end
  begin
    id 23
    name LeftLeg
    direction -2.30187e-007 -1 1.6669e-009
    length 17.5097
    axis 3.68178 -0.00654042 -0.000285133 xyz
    dof rx ry rz
  end
  begin
    id 24
    name LeftFoot
    direction 8.31532e-007 -4.54478e-011 1
    length 6.49508
    axis 1.87233e-006 4.66016e-005 -8.6538e-006 xyz
    dof rx ry rz
  end
  begin
    id 25
    name LeftToes
    direction 0.00818058 -0.00485161 0.999955
    length 3.85048
    axis 1.06247e-005 4.65869e-005 -8.65513e-006 xyz
    dof rx ry rz
  end
:hierarchy
  begin
    root RightUpLegDummy SpineDummy LeftUpLegDummy
    RightUpLegDummy RightUpLeg
    RightUpLeg RightLeg
    RightLeg RightFoot
    RightFoot RightToes
    SpineDummy Spine
    Spine Spine1
    Spine1 HEadDummy LeftShoulder1Dummy RightShoulderDummy
    HEadDummy HEad
    LeftShoulder1Dummy LeftShoulder1
    LeftShoulder1 LeftArm
    LeftArm LeftForeArm
    LeftForeArm LeftHand
    RightShoulderDummy RightShoulder
    RightShoulder RightArm
    RightArm RightForeArm
    RightForeArm RightHand
    LeftUpLegDummy LeftUpLeg
    LeftUpLeg LeftLeg
    LeftLeg LeftFoot
    LeftFoot LeftToes
  end

:SAMPLES-PER-SECOND 30
:FULLY-SPECIFIED
:DEGREES
58
root  42.6745 33.5611 3.22457 -172.592 -39.7727 178.653
RightUpLeg  -14.9746 -6.74831 -0.390052
RightLeg  20.8032 -3.13895 -0.967684
RightFoot  -2.21456 -0.00817462 0.156679
RightToes  -26.6457 -0.121519 -0.227991
Spine  6.77395 -2.20849 3.70274
Spine1  13.0584 -4.1137 5.17181
HEad  36.7995 19.7124 -4.9071
LeftShoulder1  0 -2.42657e-020 -4.95415e-022
LeftArm  -36.443 6.71186 -90.8259
LeftForeArm  57.4431 -16.4434 -2.93881
LeftHand  0.559335 -11.1308 -6.1092
RightShoulder  0 2.42657e-020 1.07489e-018
RightArm  -33.845 -18.6571 71.9732
RightForeArm  169.918 73.0866 143.912
RightHand  -3.5668 25.6155 -15.2311
LeftUpLeg  -23.0356 12.7179 3.28664
LeftLeg  37.6383 -7.02731 -4.71459
LeftFoot  2.23024 0.00641452 -0.329551
LeftToes  -23.5802 1.33192e-006 1.13262e-007
59
root  42.5702 33.3803 3.66082 -171.215 -36.7917 176.829
RightUpLeg  -19.4179 -6.25711 -2.51362
RightLeg  26.9899 -0.871901 -0.381529
RightFoot  -3.87603 -0.0077157 0.149555
RightToes  -28.528 -0.133917 -0.241606
Spine  7.54217 -1.53559 3.25869
Spine1  14.5136 -2.66092 4.14003
HEad  35.3657 19.4268 -6.01885
LeftShoulder1  0 -2.42657e-020 -4.95415e-022
LeftArm  -36.5388 5.1941 -90.5555
LeftForeArm  57.093 -16.9191 -3.0308
LeftHand  0.557117 -11.2196 -6.041
RightShoulder  0 2.42657e-020 1.07489e-018
RightArm  -25.5724 -15.1494 70.5467
RightForeArm  178.264 74.2472 140.681
RightHand  -4.92262 25.9746 -20.7494
LeftUpLeg  -25.9145 11.9307 2.56239
LeftLeg  41.5144 -9.38316 -7.22145
LeftFoot  1.80127 0.00546653 -0.347745
LeftToes  -27.88 1.33192e-006 1.13262e-007
60
root  42.5229 33.063 4.12012 -169.695 -33.5493 175.477
RightUpLeg  -24.472 -3.60928 -4.30096
RightLeg  32.877 -0.520072 -0.302561
RightFoot  -5.32148 -0.0085325 0.19397
RightToes  -29.4986 -0.140484 -0.248466
Spine  8.09485 -0.753603 2.85326
Spine1  15.5252 -1.04097 3.37532
HEad  33.905 18.9695 -6.68636
LeftShoulder1  0 -2.42657e-020 -4.95415e-022
LeftArm  -36.321 3.86668 -90.3291
LeftForeArm  56.2423 -17.5795 -3.16003
LeftHand  0.516501 -11.1782 -5.64776
RightShoulder  0 2.42657e-020 1.07489e-018
RightArm  -18.0665 -10.5089 69.3825
RightForeArm  159.458 78.8911 114.935
RightHand  -5.93784 25.6778 -25.2761
LeftUpLeg  -28.572 10.1305 3.25191
LeftLeg  42.6975 -10.5174 -8.41851
LeftFoot  1.16818 0.00253814 -0.248977
LeftToes  -31.5849 1.33192e-006 1.13262e-007
61
root  42.4206 32.5999 4.52942 -169.078 -30.2026 174.759
RightUpLeg  -28.6977 0.0820139 -5.82807
RightLeg  38.2032 -0.899077 -0.637793
RightFoot  -7.13907 -0.00326831 0.325188
RightToes  -29.2402 -0.138724 -0.24665
Spine  8.90493 0.118307 2.6459
Spine1  17.0155 0.671156 3.11962
HEad  31.8367 18.3181 -7.66389
LeftShoulder1  0 -2.42657e-020 -4.95415e-022
LeftArm  -35.0408 2.31444 -90.2417
LeftForeArm  54.7907 -18.6794 -3.37751
LeftHand  0.503781 -11.2653 -5.47794
RightShoulder  0 2.42657e-020 1.07489e-018
RightArm  -13.0882 -4.28119 68.6612
RightForeArm  101.602 76.5154 47.5669
RightHand  -7.5427 26.1733 -31.2997
LeftUpLeg  -29.9586 8.02655 5.67496
LeftLeg  41.7796 -9.16089 -7.12068
LeftFoot  0.319792 0.000211741 -0.0758832
LeftToes  -31.1029 1.33192e-006 1.13262e-007
62
root  42.2797 31.9765 4.99292 -168.202 -26.8547 174.152
RightUpLeg  -33.9534 4.1106 -7.60474
RightLeg  44.3649 -1.56252 -1.37388
RightFoot  -8.81813 0.0145116 0.565799
RightToes  -29.359 -0.140881 -0.248804
Spine  9.78117 1.02971 2.53322
Spine1  18.6176 2.41105 3.19563
HEad  28.8727 17.2956 -8.91214
LeftShoulder1  0 -2.42657e-020 -4.95415e-022
LeftArm  -32.4968 0.49901 -90.116
LeftForeArm  52.7274 -20.3348 -3.71001
LeftHand  0.514344 -11.3428 -5.54904
RightShoulder  0 2.42657e-020 1.07489e-018
RightArm  -12.4653 4.41397 69.4806
RightForeArm  77.1354 58.2999 16.533
RightHand  -8.29727 26.2677 -34.1748
LeftUpLeg  -31.282 4.81236 9.14422
LeftLeg  40.1143 -6.09627 -4.48755
LeftFoot  -1.30964 0.000980909 0.085815
LeftToes  -26.3054 1.33192e-006 1.13262e-007
63
root  42.1009 31.0482 5.49152 -166.635 -24.7475 173.861
RightUpLeg  -40.5192 7.64172 -9.4533
RightLeg  51.6993 -2.59946 -2.93608
RightFoot  -11.3608 0.081536 1.19733
RightToes  -29.4628 -0.144882 -0.252822
Spine  11.0713 2.7157 3.1781
Spine1  21.0882 6.7398 2.65601
HEad  25.5905 15.9492 -10.3859
LeftShoulder1  0 -2.42657e-020 -4.95415e-022
LeftArm  -29.3411 -2.77613 -90.6388
LeftForeArm  50.5015 -22.3675 -4.12773
LeftHand  0.494235 -11.4875 -5.28377
RightShoulder  0 2.42657e-020 1.07489e-018
RightArm  -16.2716 11.8283 68.6776
RightForeArm  70.2444 40.3812 8.55122
RightHand  -7.41807 26.7467 -30.1408
LeftUpLeg  -34.4623 1.90396 13.2376
LeftLeg  39.9909 -3.27292 -2.4076
LeftFoot  -3.3998 0.00204449 0.0688808
LeftToes  -21.9053 1.33192e-006 1.13262e-007
64
root  41.8068 30.0836 5.92887 -165.232 -23.0116 173.885
RightUpLeg  -46.5073 10.2161 -11.2408
RightLeg  58.2781 -3.06295 -4.37599
RightFoot  -13.6467 0.178936 1.87298
RightToes  -30.0938 -0.148653 -0.256625
Spine  12.6604 4.23235 4.27828
Spine1  24.0211 10.4867 3.09911
HEad  22.3973 14.1184 -11.8454
LeftShoulder1  0 -2.42657e-020 -4.95415e-022
LeftArm  -26.3362 -6.23843 -92.0126
LeftForeArm  48.936 -24.3668 -4.54979
LeftHand  0.381139 -11.4183 -4.18343
RightShoulder  0 2.42657e-020 1.07489e-018
RightArm  -23.819 17.5228 66.0483
RightForeArm  64.8925 30.558 5.91225
RightHand  -5.74936 26.0292 -24.1498
LeftUpLeg  -37.3875 -0.225959 17.44
LeftLeg  40.168 -0.889528 -0.663194
LeftFoot  -5.38574 -0.0138342 -0.294139
LeftToes  -17.4898 1.33192e-006 1.13262e-007
65
root  41.4572 29.1977 6.37873 -163.812 -22.5225 173.858
RightUpLeg  -51.5468 10.5289 -12.8426
RightLeg  63.7087 -2.83899 -5.01704
RightFoot  -15.4227 0.258694 2.28796
RightToes  -30.8937 -0.150123 -0.258129
Spine  13.8545 4.80509 5.56236
Spine1  26.2233 12.1274 4.17028
HEad  20.2262 12.2646 -12.1303
LeftShoulder1  0 -2.42657e-020 -4.95415e-022
LeftArm  -24.1992 -8.78752 -93.4799
LeftForeArm  48.1261 -26.0939 -4.92463
LeftHand  0.215736 -10.9322 -2.6258
RightShoulder  0 2.42657e-020 1.07489e-018
RightArm  -37.5441 23.0069 62.2621
RightForeArm  56.3649 20.3011 3.69745
RightHand  -3.55981 24.5903 -15.8632
LeftUpLeg  -40.533 -1.7283 20.9466
LeftLeg  40.5979 0.805624 0.599748
LeftFoot  -7.36786 -0.0529412 -0.822249
LeftToes  -13.2942 1.33192e-006 1.13262e-007
66
root  40.9944 28.5467 6.71174 -163.184 -22.6994 173.719
RightUpLeg  -54.285 9.70405 -14.1566
RightLeg  67.3768 -2.43162 -5.0439
RightFoot  -16.8329 0.306566 2.44937
RightToes  -30.3777 -0.14653 -0.254582
Spine  14.7373 4.41081 6.65558
Spine1  27.7205 11.3289 5.7066
HEad  18.9122 10.6646 -12.1618
LeftShoulder1  0 -2.42657e-020 -4.95415e-022
LeftArm  -22.5788 -10.2523 -94.3871
LeftForeArm  46.5044 -27.8637 -5.32206
LeftHand  0.147789 -10.69 -1.95074
RightShoulder  0 2.42657e-020 1.07489e-018
RightArm  -56.5293 26.0582 58.2172
RightForeArm  46.9777 13.8425 2.46765
RightHand  -1.97147 23.0917 -9.26124
LeftUpLeg  -42.2572 -1.58714 22.6037
LeftLeg  40.489 1.30153 0.968323
LeftFoot  -8.85937 -0.0942035 -1.21601
LeftToes  -11.6141 1.33192e-006 1.13262e-007
67
root  40.483 28.1736 6.97888 -162.819 -23.5975 173.974
RightUpLeg  -55.3411 8.31176 -14.8645
RightLeg  69.031 -2.077 -4.6711
RightFoot  -17.3542 0.300774 2.34828
RightToes  -33.5237 -0.168924 -0.275696
Spine  15.0616 3.46004 7.51619
Spine1  28.271 9.11076 7.30937
HEad  17.9956 9.86448 -12.5647
LeftShoulder1  0 -2.42657e-020 -4.95415e-022
LeftArm  -20.7596 -10.8725 -94.6577
LeftForeArm  44.8713 -29.5896 -5.72271
LeftHand  0.0829936 -10.4041 -1.28236
RightShoulder  0 2.42657e-020 1.07489e-018
RightArm  -64.5261 24.7431 55.8783
RightForeArm  39.3122 16.0808 2.9002
RightHand  -1.13483 22.8685 -5.23791
LeftUpLeg  -43.3895 1.20704 22.4003
LeftLeg  40.0183 0.570339 0.414164
LeftFoot  -7.82002 -0.0823761 -1.2052
LeftToes  -15.7087 1.33192e-006 1.13262e-007
68
root  39.8877 28.0687 7.20866 -162.533 -24.4974 174.613
RightUpLeg  -55.337 7.09947 -15.3282
RightLeg  68.866 -2.04816 -4.57356
RightFoot  -17.2057 0.283807 2.25343
RightToes  -34.5184 -0.176241 -0.282111
Spine  14.9085 2.38373 8.03988
Spine1  28.0694 6.68144 8.28197
HEad  17.1163 10.5168 -12.9104
LeftShoulder1  0 -2.42657e-020 -4.95415e-022
LeftArm  -19.7398 -10.6304 -94.4517
LeftForeArm  44.9783 -31.2508 -6.11931
LeftHand  0.000941515 -10.4135 -0.38053
RightShoulder  0 2.42657e-020 1.07489e-018
RightArm  -62.6216 21.9899 55.0154
RightForeArm  28.0909 21.7206 4.02198
RightHand  -0.327809 22.7081 -1.26274
LeftUpLeg  -43.9803 4.70408 21.3947
LeftLeg  39.5306 -0.271831 -0.201652
LeftFoot  -3.9029 -0.0377845 -1.10892
LeftToes  -30.3609 1.33192e-006 1.13262e-007
